<svg width="137" height="112" viewBox="0 0 137 112" fill="none" xmlns="http://www.w3.org/2000/svg">
<path d="M0 73.9679L20.8405 62.8515C23.1302 61.7133 25.1372 60.8218 26.8558 60.1806C28.5745 59.5394 30.2197 59.0406 31.7988 58.6844C33.3742 58.33 35.0213 58.0797 36.7418 57.9354C38.4604 57.7947 40.4637 57.7216 42.7571 57.7216H46.4111V53.8742H42.7571C40.3205 53.8742 38.2071 53.8048 36.4205 53.6623C34.6265 53.5217 32.9813 53.3079 31.4775 53.0193C29.9737 52.7361 28.3945 52.2374 26.7493 51.5231C25.1023 50.8124 23.1302 49.9575 20.8387 48.9582L0 37.6261V0L65.9644 39.1223V72.6837L0 111.804V73.9679Z" fill="#0B1130"/>
<path d="M71.5564 73.9679L92.0437 62.8515C94.2946 61.7133 96.2676 60.8218 97.9571 60.1806C99.6466 59.5394 101.264 59.0406 102.816 58.6844C104.365 58.33 105.984 58.0797 107.675 57.9354C109.365 57.7947 111.334 57.7216 113.589 57.7216H117.181V53.8743H113.589C111.194 53.8743 109.116 53.8048 107.36 53.6623C105.596 53.5217 103.979 53.3079 102.5 53.0193C101.022 52.7361 99.4697 52.2374 97.8524 51.5231C96.2333 50.8124 94.2946 49.9575 92.0419 48.9582L71.5546 37.6279V0L136.401 39.1223V72.6837L71.5546 111.804V73.9679H71.5564Z" fill="#0B1130"/>
</svg>
