<svg width="44" height="44" viewBox="0 0 44 44" fill="none" xmlns="http://www.w3.org/2000/svg">
<g clip-path="url(#clip0_2599_363)">
<path d="M35.3215 0H8.6785C3.8855 0 0 3.8855 0 8.6785V35.3215C0 40.1145 3.8855 44 8.6785 44H35.3215C40.1145 44 44 40.1145 44 35.3215V8.6785C44 3.8855 40.1145 0 35.3215 0Z" fill="#C3F971"/>
<path d="M14.8593 17.6562H9.3988V35.0028H14.8593V17.6562Z" fill="#0B1130"/>
<path d="M12.1274 15.2536C11.5077 15.2502 10.9037 15.0627 10.3899 14.7156C9.87618 14.3684 9.47696 13.879 9.24265 13.3044C9.00833 12.7299 8.94931 12.1016 9.07081 11.4924C9.19405 10.8849 9.49432 10.3277 9.93345 9.89206C10.3743 9.45466 10.9315 9.15786 11.539 9.03809C12.1482 8.92007 12.7765 8.98429 13.3493 9.22208C13.9221 9.45987 14.4098 9.86255 14.7518 10.3781C15.0954 10.8918 15.2777 11.4993 15.2777 12.119C15.2829 12.5338 15.2065 12.9452 15.0486 13.3305C14.8923 13.7141 14.6598 14.0629 14.3664 14.3545C14.0714 14.6461 13.7225 14.877 13.3354 15.0315C12.9518 15.1859 12.5387 15.2623 12.1239 15.2519L12.1274 15.2536Z" fill="#0B1130"/>
<path d="M34.9883 35.0179H29.5313V25.541C29.5313 22.7465 28.3441 21.8839 26.808 21.8839C25.1886 21.8839 23.6004 23.1041 23.6004 25.6122V35.0179H18.1399V17.6696H23.3921V20.0735H23.4633C23.9892 19.0061 25.836 17.1836 28.6548 17.1836C31.7009 17.1836 34.9935 18.9922 34.9935 24.2896L34.9901 35.0196L34.9883 35.0179Z" fill="#0B1130"/>
</g>
<defs>
<clipPath id="clip0_2599_363">
<rect width="44" height="44" fill="white"/>
</clipPath>
</defs>
</svg>
